<?xml version="1.0" encoding="UTF-8" standalone="no"?><!-- Generator: Gravit.io --><svg xmlns="http://www.w3.org/2000/svg" xmlns:xlink="http://www.w3.org/1999/xlink" style="isolation:isolate" viewBox="0 0 2024 500" width="2024pt" height="500pt"><defs><clipPath id="_clipPath_VpfI6afUXkB8F8kFUSEmZNXwNC5GIkU2"><rect width="2024" height="500"/></clipPath></defs><g clip-path="url(#_clipPath_VpfI6afUXkB8F8kFUSEmZNXwNC5GIkU2)"><rect width="2024" height="500" style="fill:rgb(10,10,30)" fill-opacity="0"/><path d=" M 774.741 224.72 L 774.741 224.72 Q 757.109 224.72 740.647 219.941 L 740.647 219.941 L 740.647 219.941 Q 724.184 215.161 714.2 207.514 L 714.2 207.514 L 725.883 181.598 L 725.883 181.598 Q 735.442 188.608 748.613 192.857 L 748.613 192.857 L 748.613 192.857 Q 761.783 197.105 774.953 197.105 L 774.953 197.105 L 774.953 197.105 Q 789.61 197.105 796.62 192.75 L 796.62 192.75 L 796.62 192.75 Q 803.63 188.396 803.63 181.173 L 803.63 181.173 L 803.63 181.173 Q 803.63 175.863 799.488 172.358 L 799.488 172.358 L 799.488 172.358 Q 795.346 168.853 788.867 166.729 L 788.867 166.729 L 788.867 166.729 Q 782.388 164.604 771.342 162.055 L 771.342 162.055 L 771.342 162.055 Q 754.348 158.019 743.514 153.983 L 743.514 153.983 L 743.514 153.983 Q 732.681 149.947 724.927 141.025 L 724.927 141.025 L 724.927 141.025 Q 717.174 132.104 717.174 117.234 L 717.174 117.234 L 717.174 117.234 Q 717.174 104.276 724.184 93.761 L 724.184 93.761 L 724.184 93.761 Q 731.194 83.246 745.32 77.086 L 745.32 77.086 L 745.32 77.086 Q 759.446 70.926 779.839 70.926 L 779.839 70.926 L 779.839 70.926 Q 794.071 70.926 807.666 74.325 L 807.666 74.325 L 807.666 74.325 Q 821.261 77.723 831.457 84.096 L 831.457 84.096 L 820.836 110.224 L 820.836 110.224 Q 800.231 98.541 779.626 98.541 L 779.626 98.541 L 779.626 98.541 Q 765.182 98.541 758.278 103.214 L 758.278 103.214 L 758.278 103.214 Q 751.374 107.887 751.374 115.535 L 751.374 115.535 L 751.374 115.535 Q 751.374 123.182 759.34 126.899 L 759.34 126.899 L 759.34 126.899 Q 767.306 130.617 783.662 134.228 L 783.662 134.228 L 783.662 134.228 Q 800.656 138.264 811.49 142.3 L 811.49 142.3 L 811.49 142.3 Q 822.323 146.336 830.077 155.045 L 830.077 155.045 L 830.077 155.045 Q 837.83 163.755 837.83 178.624 L 837.83 178.624 L 837.83 178.624 Q 837.83 191.37 830.714 201.885 L 830.714 201.885 L 830.714 201.885 Q 823.598 212.4 809.366 218.56 L 809.366 218.56 L 809.366 218.56 Q 795.133 224.72 774.741 224.72 L 774.741 224.72 Z  M 895.609 194.556 L 976.542 194.556 L 976.542 222.171 L 861.409 222.171 L 861.409 73.475 L 973.781 73.475 L 973.781 101.09 L 895.609 101.09 L 895.609 133.378 L 964.647 133.378 L 964.647 160.144 L 895.609 160.144 L 895.609 194.556 Z  M 1110.581 73.475 L 1144.781 73.475 L 1080.417 222.171 L 1046.43 222.171 L 982.278 73.475 L 1019.452 73.475 L 1064.698 179.686 L 1110.581 73.475 Z  M 1191.302 194.556 L 1272.235 194.556 L 1272.235 222.171 L 1157.102 222.171 L 1157.102 73.475 L 1269.474 73.475 L 1269.474 101.09 L 1191.302 101.09 L 1191.302 133.378 L 1260.339 133.378 L 1260.339 160.144 L 1191.302 160.144 L 1191.302 194.556 Z  M 1402.026 73.475 L 1436.013 73.475 L 1436.013 222.171 L 1407.761 222.171 L 1333.625 131.891 L 1333.625 222.171 L 1299.638 222.171 L 1299.638 73.475 L 1328.102 73.475 L 1402.026 163.755 L 1402.026 73.475 Z  M 1502.077 222.171 L 1502.077 101.515 L 1454.494 101.515 L 1454.494 73.475 L 1584.072 73.475 L 1584.072 101.515 L 1536.489 101.515 L 1536.489 222.171 L 1502.077 222.171 Z  M 1636.753 194.556 L 1717.686 194.556 L 1717.686 222.171 L 1602.553 222.171 L 1602.553 73.475 L 1714.924 73.475 L 1714.924 101.09 L 1636.753 101.09 L 1636.753 133.378 L 1705.79 133.378 L 1705.79 160.144 L 1636.753 160.144 L 1636.753 194.556 Z  M 1779.289 194.556 L 1860.222 194.556 L 1860.222 222.171 L 1745.089 222.171 L 1745.089 73.475 L 1857.46 73.475 L 1857.46 101.09 L 1779.289 101.09 L 1779.289 133.378 L 1848.326 133.378 L 1848.326 160.144 L 1779.289 160.144 L 1779.289 194.556 Z  M 1990.012 73.475 L 2024 73.475 L 2024 222.171 L 1995.748 222.171 L 1921.612 131.891 L 1921.612 222.171 L 1887.624 222.171 L 1887.624 73.475 L 1916.089 73.475 L 1990.012 163.755 L 1990.012 73.475 Z " fill="rgb(10,10,30)"/><path d=" M 729.627 407.247 L 729.627 292.367 L 737.997 292.367 L 737.997 407.247 L 729.627 407.247 Z  M 863.216 292.367 L 871.586 292.367 L 871.586 407.247 L 864.693 407.247 L 786.41 307.465 L 786.41 407.247 L 778.041 407.247 L 778.041 292.367 L 785.098 292.367 L 863.216 392.148 L 863.216 292.367 Z  M 988.436 299.916 L 920 299.916 L 920 348.986 L 981.215 348.986 L 981.215 356.535 L 920 356.535 L 920 407.247 L 911.63 407.247 L 911.63 292.367 L 988.436 292.367 L 988.436 299.916 Z  M 1062.452 408.067 L 1062.452 408.067 Q 1045.548 408.067 1031.926 400.436 L 1031.926 400.436 L 1031.926 400.436 Q 1018.305 392.805 1010.509 379.511 L 1010.509 379.511 L 1010.509 379.511 Q 1002.714 366.218 1002.714 349.807 L 1002.714 349.807 L 1002.714 349.807 Q 1002.714 333.395 1010.509 320.102 L 1010.509 320.102 L 1010.509 320.102 Q 1018.305 306.809 1031.926 299.177 L 1031.926 299.177 L 1031.926 299.177 Q 1045.548 291.546 1062.452 291.546 L 1062.452 291.546 L 1062.452 291.546 Q 1079.355 291.546 1092.977 299.095 L 1092.977 299.095 L 1092.977 299.095 Q 1106.598 306.645 1114.394 319.938 L 1114.394 319.938 L 1114.394 319.938 Q 1122.189 333.231 1122.189 349.807 L 1122.189 349.807 L 1122.189 349.807 Q 1122.189 366.382 1114.394 379.676 L 1114.394 379.676 L 1114.394 379.676 Q 1106.598 392.969 1092.977 400.518 L 1092.977 400.518 L 1092.977 400.518 Q 1079.355 408.067 1062.452 408.067 L 1062.452 408.067 Z  M 1062.452 400.354 L 1062.452 400.354 Q 1076.894 400.354 1088.546 393.789 L 1088.546 393.789 L 1088.546 393.789 Q 1100.198 387.225 1106.927 375.655 L 1106.927 375.655 L 1106.927 375.655 Q 1113.655 364.085 1113.655 349.807 L 1113.655 349.807 L 1113.655 349.807 Q 1113.655 335.529 1106.927 323.959 L 1106.927 323.959 L 1106.927 323.959 Q 1100.198 312.389 1088.546 305.824 L 1088.546 305.824 L 1088.546 305.824 Q 1076.894 299.259 1062.452 299.259 L 1062.452 299.259 L 1062.452 299.259 Q 1048.009 299.259 1036.275 305.824 L 1036.275 305.824 L 1036.275 305.824 Q 1024.541 312.389 1017.812 323.959 L 1017.812 323.959 L 1017.812 323.959 Q 1011.084 335.529 1011.084 349.807 L 1011.084 349.807 L 1011.084 349.807 Q 1011.084 364.085 1017.812 375.655 L 1017.812 375.655 L 1017.812 375.655 Q 1024.541 387.225 1036.275 393.789 L 1036.275 393.789 L 1036.275 393.789 Q 1048.009 400.354 1062.452 400.354 L 1062.452 400.354 Z  M 1240.516 407.247 L 1230.997 407.247 L 1203.59 368.844 L 1203.59 368.844 Q 1197.518 369.665 1192.43 369.665 L 1192.43 369.665 L 1159.608 369.665 L 1159.608 407.247 L 1151.238 407.247 L 1151.238 292.367 L 1192.43 292.367 L 1192.43 292.367 Q 1214.094 292.367 1226.402 302.624 L 1226.402 302.624 L 1226.402 302.624 Q 1238.711 312.881 1238.711 331.098 L 1238.711 331.098 L 1238.711 331.098 Q 1238.711 344.719 1231.736 353.992 L 1231.736 353.992 L 1231.736 353.992 Q 1224.761 363.264 1211.796 367.039 L 1211.796 367.039 L 1240.516 407.247 Z  M 1159.608 362.279 L 1192.43 362.279 L 1192.43 362.279 Q 1210.811 362.279 1220.494 354.156 L 1220.494 354.156 L 1220.494 354.156 Q 1230.177 346.032 1230.177 331.098 L 1230.177 331.098 L 1230.177 331.098 Q 1230.177 316.163 1220.494 308.039 L 1220.494 308.039 L 1220.494 308.039 Q 1210.811 299.916 1192.43 299.916 L 1192.43 299.916 L 1159.608 299.916 L 1159.608 362.279 Z  M 1386.25 407.247 L 1378.044 407.247 L 1377.88 308.942 L 1329.794 391.984 L 1325.692 391.984 L 1277.606 309.27 L 1277.606 407.247 L 1269.4 407.247 L 1269.4 292.367 L 1276.457 292.367 L 1327.825 381.153 L 1379.193 292.367 L 1386.086 292.367 L 1386.25 407.247 Z  M 1512.126 407.247 L 1497.356 374.916 L 1430.725 374.916 L 1416.119 407.247 L 1407.093 407.247 L 1459.938 292.367 L 1468.307 292.367 L 1521.152 407.247 L 1512.126 407.247 Z  M 1434.007 367.859 L 1494.237 367.859 L 1464.04 301.557 L 1434.007 367.859 Z  M 1558.242 407.247 L 1558.242 299.916 L 1516.885 299.916 L 1516.885 292.367 L 1607.969 292.367 L 1607.969 299.916 L 1566.612 299.916 L 1566.612 407.247 L 1558.242 407.247 Z  M 1628.647 407.247 L 1628.647 292.367 L 1637.017 292.367 L 1637.017 407.247 L 1628.647 407.247 Z  M 1786.198 411.021 L 1790.629 416.109 L 1790.629 416.109 Q 1785.541 422.51 1778.648 425.792 L 1778.648 425.792 L 1778.648 425.792 Q 1771.756 429.074 1763.55 429.074 L 1763.55 429.074 L 1763.55 429.074 Q 1754.031 429.074 1745.087 424.151 L 1745.087 424.151 L 1745.087 424.151 Q 1736.143 419.227 1725.475 408.067 L 1725.475 408.067 L 1725.475 408.067 Q 1708.571 408.067 1695.032 400.436 L 1695.032 400.436 L 1695.032 400.436 Q 1681.492 392.805 1673.779 379.511 L 1673.779 379.511 L 1673.779 379.511 Q 1666.066 366.218 1666.066 349.807 L 1666.066 349.807 L 1666.066 349.807 Q 1666.066 333.395 1673.861 320.102 L 1673.861 320.102 L 1673.861 320.102 Q 1681.656 306.809 1695.278 299.177 L 1695.278 299.177 L 1695.278 299.177 Q 1708.9 291.546 1725.803 291.546 L 1725.803 291.546 L 1725.803 291.546 Q 1742.707 291.546 1756.329 299.095 L 1756.329 299.095 L 1756.329 299.095 Q 1769.95 306.645 1777.746 319.938 L 1777.746 319.938 L 1777.746 319.938 Q 1785.541 333.231 1785.541 349.807 L 1785.541 349.807 L 1785.541 349.807 Q 1785.541 364.577 1779.223 376.804 L 1779.223 376.804 L 1779.223 376.804 Q 1772.904 389.03 1761.745 396.99 L 1761.745 396.99 L 1761.745 396.99 Q 1750.585 404.949 1736.307 407.247 L 1736.307 407.247 L 1736.307 407.247 Q 1750.421 422.017 1763.55 422.017 L 1763.55 422.017 L 1763.55 422.017 Q 1776.843 422.017 1786.198 411.021 L 1786.198 411.021 Z  M 1674.435 349.807 L 1674.435 349.807 Q 1674.435 363.921 1681.164 375.491 L 1681.164 375.491 L 1681.164 375.491 Q 1687.893 387.061 1699.627 393.707 L 1699.627 393.707 L 1699.627 393.707 Q 1711.361 400.354 1725.803 400.354 L 1725.803 400.354 L 1725.803 400.354 Q 1740.245 400.354 1751.898 393.707 L 1751.898 393.707 L 1751.898 393.707 Q 1763.55 387.061 1770.278 375.491 L 1770.278 375.491 L 1770.278 375.491 Q 1777.007 363.921 1777.007 349.807 L 1777.007 349.807 L 1777.007 349.807 Q 1777.007 335.693 1770.278 324.123 L 1770.278 324.123 L 1770.278 324.123 Q 1763.55 312.553 1751.898 305.906 L 1751.898 305.906 L 1751.898 305.906 Q 1740.245 299.259 1725.803 299.259 L 1725.803 299.259 L 1725.803 299.259 Q 1711.361 299.259 1699.627 305.906 L 1699.627 305.906 L 1699.627 305.906 Q 1687.893 312.553 1681.164 324.123 L 1681.164 324.123 L 1681.164 324.123 Q 1674.435 335.693 1674.435 349.807 L 1674.435 349.807 Z  M 1859.557 408.067 L 1859.557 408.067 Q 1837.73 408.067 1825.667 395.431 L 1825.667 395.431 L 1825.667 395.431 Q 1813.605 382.794 1813.605 358.505 L 1813.605 358.505 L 1813.605 292.367 L 1821.975 292.367 L 1821.975 358.177 L 1821.975 358.177 Q 1821.975 379.347 1831.657 389.851 L 1831.657 389.851 L 1831.657 389.851 Q 1841.34 400.354 1859.721 400.354 L 1859.721 400.354 L 1859.721 400.354 Q 1877.938 400.354 1887.62 389.851 L 1887.62 389.851 L 1887.62 389.851 Q 1897.303 379.347 1897.303 358.177 L 1897.303 358.177 L 1897.303 292.367 L 1905.673 292.367 L 1905.673 358.505 L 1905.673 358.505 Q 1905.673 382.794 1893.529 395.431 L 1893.529 395.431 L 1893.529 395.431 Q 1881.384 408.067 1859.557 408.067 L 1859.557 408.067 Z  M 1953.102 399.698 L 2024 399.698 L 2024 407.247 L 1944.732 407.247 L 1944.732 292.367 L 2021.538 292.367 L 2021.538 299.916 L 1953.102 299.916 L 1953.102 345.212 L 2014.317 345.212 L 2014.317 352.597 L 1953.102 352.597 L 1953.102 399.698 Z " fill="rgb(10,10,30)"/><g><defs><linearGradient id="_lgradient_2" x1="0.1464466094067262" y1="0.14644660940672627" x2="0.8535533905932737" y2="0.8535533905932737"><stop offset="0%" style="stop-color:#1C54E3"/><stop offset="100%" style="stop-color:#0733A3"/></linearGradient></defs><path d="M 150 0 L 350 0 C 432.787 0 500 67.213 500 150 L 500 350 C 500 432.787 432.787 500 350 500 L 150 500 C 67.213 500 0 432.787 0 350 L 0 150 C 0 67.213 67.213 0 150 0 Z" style="stroke:none;fill:url(#_lgradient_2);stroke-miterlimit:10;"/><g><path d=" M 400.943 117.205 L 365.55 162.707 C 362.839 166.192 357.054 169.014 352.639 169.005 L 236.668 168.771 C 223.422 168.744 215.468 179.106 218.916 191.895 L 230.061 233.226 C 231.21 237.489 229.943 243.78 227.232 247.265 L 191.839 292.766 C 189.129 296.252 186.087 295.596 185.052 291.304 L 162.419 197.438 C 159.314 184.562 163.395 165.619 171.528 155.163 L 189.401 132.185 C 197.534 121.729 214.89 113.116 228.135 112.961 L 397.855 110.984 C 402.27 110.932 403.654 113.72 400.943 117.205 Z " fill="rgb(255,255,255)"/><path d=" M 99.057 382.795 L 134.45 337.293 C 137.161 333.808 142.946 330.986 147.361 330.995 L 263.332 331.229 C 276.578 331.256 284.532 320.894 281.084 308.105 L 269.939 266.774 C 268.79 262.511 270.057 256.22 272.768 252.735 L 308.161 207.234 C 310.871 203.748 313.913 204.404 314.948 208.696 L 337.581 302.562 C 340.686 315.438 336.605 334.381 328.472 344.837 L 310.599 367.815 C 302.466 378.271 285.11 386.884 271.865 387.039 L 102.145 389.016 C 97.73 389.068 96.346 386.28 99.057 382.795 Z " fill="rgb(194,206,236)"/></g></g></g></svg>