<svg width="261" height="72" viewBox="0 0 261 72" fill="none" xmlns="http://www.w3.org/2000/svg">
<path d="M108.303 56.7227L106.639 51.2187C106.411 51.6169 106.141 52.0151 105.828 52.4133C105.544 52.8116 105.074 53.3236 104.42 53.9493C103.766 54.5467 103.069 55.0729 102.329 55.528C101.59 55.9831 100.665 56.3813 99.5561 56.7227C98.4468 57.064 97.2806 57.2347 96.0574 57.2347C91.3641 57.2347 87.9223 55.6276 85.7321 52.4133C83.5419 49.1991 82.4468 44.7333 82.4468 39.016C82.4468 35.432 82.9588 32.2462 83.9828 29.4587C85.0068 26.6427 86.6139 24.3813 88.8041 22.6747C90.9943 20.968 93.6396 20.1147 96.7401 20.1147C98.589 20.1147 100.239 20.3138 101.689 20.712C103.14 21.1102 104.392 21.5938 105.444 22.1627V9.23468L100.751 7.65601V2.96268L115.855 0.829346H119.183V56.7227H108.303ZM102.287 48.872C102.799 48.872 103.325 48.7867 103.865 48.616C104.406 48.4169 104.932 48.1467 105.444 47.8053V26.344C104.562 26.1449 103.752 26.0453 103.012 26.0453C99.229 26.0738 97.3232 28.9894 97.2948 34.792V40.7654C97.2948 43.4391 97.7641 45.4587 98.7028 46.824C99.6414 48.1893 100.836 48.872 102.287 48.872Z" fill="#000"/>
<path d="M141.379 71.784C139.16 71.784 136.657 71.272 133.869 70.248C131.082 69.2524 129.276 68.2995 128.451 67.3893L131.139 61.544C131.85 62.0845 133.002 62.5822 134.595 63.0373C136.188 63.4924 137.553 63.72 138.691 63.72C139.829 63.72 140.81 63.5636 141.635 63.2507C142.488 62.9662 143.142 62.5965 143.597 62.1413C144.053 61.7147 144.422 61.1742 144.707 60.52C144.991 59.8942 145.162 59.3253 145.219 58.8133C145.304 58.3013 145.361 57.7325 145.389 57.1067V53.48C142.972 55.9831 140.028 57.2347 136.557 57.2347C131.864 57.2347 128.422 55.6276 126.232 52.4133C124.042 49.1991 122.947 44.7333 122.947 39.016C122.947 36.3422 123.245 33.8818 123.843 31.6347C124.44 29.3591 125.308 27.368 126.445 25.6613C127.612 23.9262 129.119 22.5751 130.968 21.608C132.817 20.6125 134.908 20.1147 137.24 20.1147C140.767 20.1147 143.825 20.8969 146.413 22.4613L147.139 20.456H153.667L161.688 20.84V24.8507L159.128 26.6427V55.144C159.128 66.2373 153.212 71.784 141.379 71.784ZM142.744 49.4693C143.597 49.4693 144.479 49.2276 145.389 48.744V26.2587C144.707 26.1165 144.081 26.0453 143.512 26.0453C139.729 26.0738 137.823 28.9894 137.795 34.792V41.4053C137.795 43.2258 138.037 44.7902 138.52 46.0987C139.373 48.3458 140.781 49.4693 142.744 49.4693Z" fill="#000"/>
<path d="M184.234 34.664C184.234 31.0516 184.05 28.4916 183.68 26.984C183.31 25.4764 182.627 24.7227 181.632 24.7227C180.778 24.7227 180.082 24.8791 179.541 25.192C179.001 25.4765 178.602 25.9458 178.346 26.6C178.09 27.2258 177.92 27.88 177.834 28.5627C177.778 29.2169 177.749 30.056 177.749 31.08V34.664H184.234ZM180.821 57.6187C177.635 57.6187 174.862 57.1351 172.501 56.168C170.169 55.2009 168.32 53.8498 166.954 52.1147C165.618 50.3796 164.636 48.4311 164.01 46.2693C163.385 44.0791 163.072 41.6471 163.072 38.9733C163.072 32.6018 164.693 27.7805 167.936 24.5093C171.178 21.2382 175.715 19.6027 181.546 19.6027C187.15 19.6027 191.161 20.9253 193.578 23.5707C195.996 26.1876 197.205 30.4116 197.205 36.2427V40.9787H177.706V41.7893C177.706 43.4676 177.877 44.8471 178.218 45.928C178.588 47.0089 179.114 47.8053 179.797 48.3173C180.48 48.8293 181.177 49.1707 181.888 49.3413C182.599 49.512 183.466 49.5973 184.49 49.5973C185.486 49.5973 186.553 49.4693 187.69 49.2133C188.857 48.9573 190.023 48.5591 191.189 48.0187C192.384 47.4782 193.379 46.8382 194.176 46.0987L196.693 50.408C195.641 52.1147 194.09 53.5511 192.042 54.7173C190.023 55.8551 188.074 56.6231 186.197 57.0213C184.32 57.4196 182.528 57.6187 180.821 57.6187Z" fill="#000"/>
<path d="M74 57C66.5 44.5 54 39.5 54 27C54 22 59 17 64 17C66.5 17 69 17 71.5 19.5C71.5 19.5 72.3 14.5 66.5 7H81.5C76.5 14.5 76.5 19.5 76.5 19.5C79 17 81.5 17 84 17C89 17 94 22 94 27C94 39.5 81.5 44.5 74 57Z" fill="#960000"/>
<path d="M218.611 56.7226V6.71729H233.16V56.7226H218.611Z" fill="#000"/>
<path d="M249.436 57.6186C245.596 57.6186 242.908 56.4666 241.372 54.1626C239.865 51.8586 239.111 47.9618 239.111 42.472V27.9653H236.167V22.0346L241.202 20.456L245.554 10.5146H253.063V20.456H260.06V27.9653H252.935V43.8373C252.935 46.1129 253.262 47.6204 253.916 48.36C254.571 49.0995 255.58 49.4693 256.946 49.4693C257.543 49.4693 258.083 49.3982 258.567 49.256C259.051 49.1137 259.449 48.9146 259.762 48.6586V54.4613C259.335 54.888 258.78 55.3146 258.098 55.7413C257.415 56.1395 256.277 56.552 254.684 56.9786C253.12 57.4053 251.371 57.6186 249.436 57.6186Z" fill="#000"/>
<path d="M17.408 48.3599C19.4276 48.3599 20.9067 47.791 21.8453 46.6532C22.784 45.5155 23.2533 44.1644 23.2533 42.5999V39.6132C23.2533 37.7644 22.656 36.4559 21.4613 35.6879C20.2667 34.8915 18.9156 34.4932 17.408 34.4932H14.08V48.3599H17.408ZM22.656 19.5173C22.656 17.8106 22.1867 16.6301 21.248 15.9759C20.3093 15.2932 18.9582 14.9519 17.1947 14.9519H14.08V27.2826H17.536C19.1858 27.2826 20.4516 26.6426 21.3333 25.3626C22.2151 24.0541 22.656 22.4613 22.656 20.5839V19.5173ZM20.3093 57.1066C18.0907 57.1066 15.2178 57.0497 11.6907 56.9359C8.16356 56.8221 5.632 56.751 4.096 56.7226H0V6.71725H7.38133C9.17333 6.71725 11.2213 6.66036 13.5253 6.54659C15.8293 6.40436 17.4933 6.33325 18.5173 6.33325C21.8453 6.33325 24.6471 6.60347 26.9227 7.14392C29.2267 7.68436 31.0329 8.49503 32.3413 9.57592C33.6498 10.6568 34.5742 11.9084 35.1147 13.3306C35.6836 14.7528 35.968 16.4453 35.968 18.4079C35.968 21.423 35.2711 24.0115 33.8773 26.1732C32.4836 28.335 30.464 29.6861 27.8187 30.2266C34.5316 30.8239 37.888 34.7635 37.888 42.0453C37.888 44.2355 37.5609 46.2266 36.9067 48.0186C36.2524 49.7821 35.2427 51.3608 33.8773 52.7546C32.5404 54.1199 30.72 55.1866 28.416 55.9546C26.112 56.7226 23.4098 57.1066 20.3093 57.1066Z" fill="#000"/>
<path d="M56.1257 56.7226H42.3443V29.1173L39.7843 27.5386V22.7172L48.9577 20.4559H52.4137L53.651 30.6106C54.8172 23.6417 58.5577 20.1572 64.8723 20.1572C65.5834 20.1572 66.323 20.2853 67.091 20.5413L65.6403 35.7306C65.043 35.1902 63.7346 34.9199 61.715 34.9199C58.8137 34.9199 56.9506 35.6879 56.1257 37.2239V56.7226Z" fill="#000"/>
<path d="M206.997 56.36L200 47.32V45.8267L206.997 36.8293H208.619L215.915 45.8267V47.32L208.619 56.36H206.997Z" fill="#960000"/>
</svg>